<?xml version="1.0" encoding="UTF-8" standalone="no"?>
<!-- Generator: Adobe Illustrator 16.0.0, SVG Export Plug-In . SVG Version: 6.00 Build 0)  -->

<svg
   xmlns:dc="http://purl.org/dc/elements/1.1/"
   xmlns:cc="http://creativecommons.org/ns#"
   xmlns:rdf="http://www.w3.org/1999/02/22-rdf-syntax-ns#"
   xmlns:svg="http://www.w3.org/2000/svg"
   xmlns="http://www.w3.org/2000/svg"
   xmlns:sodipodi="http://sodipodi.sourceforge.net/DTD/sodipodi-0.dtd"
   xmlns:inkscape="http://www.inkscape.org/namespaces/inkscape"
   version="1.1"
   id="Layer_1"
   x="0px"
   y="0px"
   width="136.913px"
   height="136.913px"
   viewBox="0 0 136.913 136.913"
   enable-background="new 0 0 136.913 136.913"
   xml:space="preserve"
   inkscape:version="0.91 r"
   sodipodi:docname="icon.svg"><metadata
   id="metadata351"><rdf:RDF><cc:Work
       rdf:about=""><dc:format>image/svg+xml</dc:format><dc:type
         rdf:resource="http://purl.org/dc/dcmitype/StillImage" /><dc:title></dc:title></cc:Work></rdf:RDF></metadata><defs
   id="defs349" /><sodipodi:namedview
   pagecolor="#ffffff"
   bordercolor="#666666"
   borderopacity="1"
   objecttolerance="10"
   gridtolerance="10"
   guidetolerance="10"
   inkscape:pageopacity="0"
   inkscape:pageshadow="2"
   inkscape:window-width="2560"
   inkscape:window-height="981"
   id="namedview347"
   showgrid="false"
   inkscape:zoom="1.7237224"
   inkscape:cx="97.173522"
   inkscape:cy="36.919013"
   inkscape:window-x="0"
   inkscape:window-y="22"
   inkscape:window-maximized="1"
   inkscape:current-layer="g11" />
<g
   id="g3">
	<g
   id="g5">
		<g
   id="g7">
			<g
   id="g9">
				<g
   id="g11">
					<g
   id="g13"
   style="fill:#999999">
						<g
   id="g15"
   style="fill:#999999">
							<g
   id="g17"
   style="fill:#999999">
								<circle
   fill="#344E5D"
   cx="68.456"
   cy="68.455"
   r="63.333"
   id="circle19"
   style="fill:#999999" />
							</g>
						</g>
					</g>
				<g
   id="g6815"
   transform="translate(18.456497,18.456497)"
   style="fill:#ffffff"><g
     id="g6801"
     transform="translate(0,-952.36216)"
     style="fill:#ffffff"><path
       id="path6803"
       style="color:#000000;font-style:normal;font-variant:normal;font-weight:normal;font-stretch:normal;font-size:medium;line-height:normal;font-family:sans-serif;text-indent:0;text-align:start;text-decoration:none;text-decoration-line:none;text-decoration-style:solid;text-decoration-color:#000000;letter-spacing:normal;word-spacing:normal;text-transform:none;direction:ltr;block-progression:tb;writing-mode:lr-tb;baseline-shift:baseline;text-anchor:start;white-space:normal;clip-rule:nonzero;display:inline;overflow:visible;visibility:visible;opacity:1;isolation:auto;mix-blend-mode:normal;color-interpolation:sRGB;color-interpolation-filters:linearRGB;solid-color:#000000;solid-opacity:1;fill:#ffffff;fill-opacity:1;fill-rule:nonzero;stroke:none;stroke-width:1;stroke-linecap:butt;stroke-linejoin:round;stroke-miterlimit:4;stroke-dasharray:none;stroke-dashoffset:0;stroke-opacity:1;color-rendering:auto;image-rendering:auto;shape-rendering:auto;text-rendering:auto;enable-background:accumulate"
       d="m 50,957.36222 c -24.827434,0 -45,20.17256 -45,44.99988 0,24.8276 20.172566,45 45,45 24.82743,0 45,-20.1724 45,-45 0,-24.82732 -20.17257,-44.99988 -45,-44.99988 z m 0,4.28571 c 22.511259,0 40.71429,18.20302 40.71429,40.71417 0,22.5116 -18.203031,40.7143 -40.71429,40.7143 -22.511259,0 -40.714286,-18.2027 -40.714286,-40.7143 0,-22.51115 18.203027,-40.71417 40.714286,-40.71417 z m 3.147321,10.11163 c -8.637844,-0.10843 -14.609477,7.67023 -16.180247,13.09149 -0.835367,2.88317 -0.411043,7.36268 2.527903,8.40403 6.194229,2.1948 9.81597,-4.12436 15.234377,-4.05972 5.21688,0.0681 8.021105,1.75328 12.848769,3.98438 1.004391,-1.90921 1.547683,-4.00195 1.582033,-6.12724 0.09981,-8.00421 -7.374009,-15.18579 -16.012835,-15.29293 z m -19.453127,19.3359 c -2.157163,0.0214 -4.249208,0.54399 -6.1356,1.52345 -7.090585,3.71502 -9.852694,13.70059 -5.842633,21.35319 4.008665,7.6521 13.685379,9.2126 19.202006,8.019 2.933859,-0.6347 6.674177,-3.1384 6.194199,-6.2194 -1.011626,-6.4933 -8.297306,-6.6772 -10.814735,-11.4759 -2.418642,-4.62281 -2.272812,-7.8923 -2.603237,-13.20033 z m 32.486053,4.35271 c -1.182583,-0.0776 -2.304021,0.20313 -3.147321,1.01283 -4.739687,4.552 -0.709736,10.6128 -3.197546,15.427 -2.400519,4.632 -5.16552,6.3955 -9.324776,9.7097 1.255997,1.7541 2.878702,3.168 4.762835,4.152 7.109365,3.6788 16.88091,0.2228 20.851001,-7.4499 3.9706,-7.6718 -0.30368,-16.4968 -4.444751,-20.3321 -1.376443,-1.2748 -3.528476,-2.39006 -5.499442,-2.51953 z M 50,998.0765 a 4.2857143,4.2857143 0 0 0 -4.285714,4.2856 A 4.2857143,4.2857143 0 0 0 50,1006.6478 4.2857143,4.2857143 0 0 0 54.285714,1002.3621 4.2857143,4.2857143 0 0 0 50,998.0765 Z"
       inkscape:connector-curvature="0" /></g></g></g>
			</g>
		</g>
	</g>
	
</g>
</svg>